<?xml version="1.0" encoding="utf-8"?>
<!-- Svg Vector Icons : http://www.onlinewebfonts.com/icon -->
<!DOCTYPE svg PUBLIC "-//W3C//DTD SVG 1.1//EN" "http://www.w3.org/Graphics/SVG/1.1/DTD/svg11.dtd">
<svg version="1.1" xmlns="http://www.w3.org/2000/svg" xmlns:xlink="http://www.w3.org/1999/xlink" x="0px" y="0px" viewBox="0 0 1000 1000" enable-background="new 0 0 1000 1000" xml:space="preserve">
<metadata> Svg Vector Icons : http://www.onlinewebfonts.com/icon </metadata>
<g><g transform="translate(0.000000,511.000000) scale(0.100000,-0.100000)"><path d="M4641.4,4999.6C2568.9,4853.9,780.6,3369.3,256.9,1356.2c-205-790.4-210-1669.8-9.9-2452.8c128.4-516.3,373-1062.2,669.4-1504.3c1578.4-2361.4,4787.1-2902.4,7054.6-1188.1c259.4,195.1,731.2,666.9,926.3,926.3c1464.8,1936.6,1309.2,4624.1-365.6,6365.5C7516.6,4559.9,6106.1,5100.9,4641.4,4999.6z M5221.8,2949.4c51.9-27.2,126-88.9,165.5-140.8l69.2-88.9l7.4-1348.7c2.5-741,0-1373.4-7.4-1403c-17.3-76.6-150.7-224.8-242.1-271.7c-101.3-51.9-289-46.9-402.6,7.4c-51.9,27.2-128.4,88.9-168,140.8l-76.6,96.3l-7.4,1324c-4.9,876.9,0,1356.1,17.3,1415.4C4656.2,2944.5,4972.4,3077.9,5221.8,2949.4z M3285.3,2433.2c106.2-46.9,212.4-168,244.5-271.7c54.4-177.9-12.3-392.7-160.6-533.5c-222.3-207.5-457-647.2-545.9-1015.2c-64.2-269.2-69.2-699.1-12.4-965.8c148.2-696.6,617.5-1279.5,1259.8-1578.4c308.8-140.8,550.8-192.7,916.4-192.7c249.5,0,370.5,12.4,538.5,54.4c1005.4,252,1697,1126.4,1699.4,2153.9c2.5,340.9-46.9,605.2-163,872c-113.6,264.3-222.3,439.7-385.3,620c-175.4,192.7-219.8,279.1-219.8,434.7c0,316.2,279.1,528.6,585.4,444.6c276.7-79.1,763.3-758.3,955.9-1338.8c106.2-311.2,143.3-531.1,155.6-909c14.8-429.8-27.2-726.2-155.6-1111.6c-365.6-1089.3-1314.1-1911.9-2443-2112c-289-51.9-822.5-51.9-1111.5,0c-657.1,116.1-1296.8,466.8-1753.8,958.4c-558.3,597.8-852.2,1346.2-852.2,2168.8c0,805.3,318.6,1605.6,859.6,2156.4C2902.4,2477.6,3077.8,2527,3285.3,2433.2z"/></g></g>
</svg>